<svg xmlns="http://www.w3.org/2000/svg" viewBox="0 0 1200 630">
  <!-- Background - VS Code Dark -->
  <rect width="1200" height="630" fill="#1e1e2e"/>
  
  <!-- Activity Bar -->
  <rect x="0" y="0" width="48" height="630" fill="#181825"/>
  <rect x="0" y="60" width="48" height="3" fill="#82aaff"/>
  
  <!-- Sidebar -->
  <rect x="48" y="0" width="220" height="630" fill="#1a1a2e"/>
  <text x="68" y="30" font-family="monospace" font-size="11" fill="#637777">EXPLORER</text>
  <rect x="48" y="40" width="220" height="1" fill="#2a2a3e"/>
  
  <!-- File tree items -->
  <text x="78" y="65" font-family="monospace" font-size="12" fill="#c3e88d">📄 README.md</text>
  <text x="78" y="88" font-family="monospace" font-size="12" fill="#82aaff">📄 AboutMe.ts</text>
  <text x="78" y="111" font-family="monospace" font-size="12" fill="#ffcb6b">📄 skills.json</text>
  <text x="78" y="134" font-family="monospace" font-size="12" fill="#89ddff">📄 Projects.jsx</text>
  <text x="78" y="157" font-family="monospace" font-size="12" fill="#82aaff">📄 ContactForm.tsx</text>
  
  <!-- Editor Area -->
  <rect x="268" y="0" width="932" height="35" fill="#181825"/>
  <rect x="268" y="0" width="130" height="35" fill="#1e1e2e"/>
  <text x="288" y="23" font-family="monospace" font-size="12" fill="#c3e88d">README.md</text>
  
  <!-- Editor Content -->
  <rect x="268" y="35" width="932" height="520" fill="#1e1e2e"/>
  
  <!-- Line numbers -->
  <text x="285" y="75" font-family="monospace" font-size="13" fill="#3a3a5e">1</text>
  <text x="285" y="100" font-family="monospace" font-size="13" fill="#3a3a5e">2</text>
  <text x="285" y="140" font-family="monospace" font-size="13" fill="#3a3a5e">3</text>
  <text x="285" y="192" font-family="monospace" font-size="13" fill="#3a3a5e">4</text>
  <text x="285" y="230" font-family="monospace" font-size="13" fill="#3a3a5e">5</text>
  <text x="285" y="300" font-family="monospace" font-size="13" fill="#3a3a5e">6</text>
  
  <!-- Code Content -->
  <text x="315" y="75" font-family="monospace" font-size="13" fill="#637777">&lt;!-- PORTFOLIO-MASTER/README.md --&gt;</text>
  
  <!-- Badges -->
  <rect x="315" y="87" width="120" height="22" rx="4" fill="#82aaff" opacity="0.2"/>
  <text x="325" y="103" font-family="monospace" font-size="10" fill="#82aaff">Backend Dev</text>
  <rect x="445" y="87" width="130" height="22" rx="4" fill="#c3e88d" opacity="0.2"/>
  <text x="455" y="103" font-family="monospace" font-size="10" fill="#c3e88d">Cloud Enthusiast</text>
  
  <!-- Main heading -->
  <text x="315" y="140" font-family="monospace" font-size="13" fill="#c792ea"># </text>
  <text x="340" y="140" font-family="monospace" font-size="26" font-weight="bold" fill="#cdd6f4">Hi, I'm </text>
  <text x="530" y="140" font-family="monospace" font-size="26" font-weight="bold" fill="#c3e88d">Anurag Kumar</text>
  
  <!-- Role line -->
  <text x="315" y="192" font-family="monospace" font-size="16" fill="#cdd6f4">Aspiring </text>
  <text x="440" y="192" font-family="monospace" font-size="16" fill="#82aaff">Backend Developer</text>
  <text x="720" y="192" font-family="monospace" font-size="16" fill="#cdd6f4"> | </text>
  <text x="750" y="192" font-family="monospace" font-size="16" fill="#c792ea">Full Stack</text>
  
  <!-- Blockquote -->
  <rect x="315" y="212" width="3" height="40" fill="#c792ea"/>
  <text x="330" y="230" font-family="monospace" font-size="12" fill="#a6adc8">&gt; Building scalable backend systems with Node.js &amp; Express</text>
  <text x="330" y="248" font-family="monospace" font-size="12" fill="#a6adc8">&gt; AWS Cloud Computing | React Native | MongoDB</text>
  
  <!-- Code block -->
  <rect x="315" y="270" width="550" height="80" rx="6" fill="#11111b"/>
  <text x="330" y="295" font-family="monospace" font-size="12" fill="#637777"># Clone and explore</text>
  <text x="330" y="315" font-family="monospace" font-size="12" fill="#c3e88d">$ </text>
  <text x="350" y="315" font-family="monospace" font-size="12" fill="#cdd6f4">cd PORTFOLIO-MASTER</text>
  <text x="330" y="335" font-family="monospace" font-size="12" fill="#c3e88d">$ </text>
  <text x="350" y="335" font-family="monospace" font-size="12" fill="#cdd6f4">cat src/AboutMe.ts</text>
  
  <!-- Terminal -->
  <rect x="268" y="555" width="932" height="75" fill="#181825"/>
  <rect x="268" y="555" width="932" height="1" fill="#2a2a3e"/>
  <text x="285" y="575" font-family="monospace" font-size="10" fill="#637777">TERMINAL</text>
  <text x="285" y="600" font-family="monospace" font-size="12" fill="#c3e88d">anurag@portfolio</text>
  <text x="430" y="600" font-family="monospace" font-size="12" fill="#cdd6f4">:~$ </text>
  <text x="465" y="600" font-family="monospace" font-size="12" fill="#82aaff">npm run dev</text>
  <rect x="580" y="590" width="8" height="16" fill="#82aaff" opacity="0.7"/>
  
  <!-- Status Bar -->
  <rect x="0" y="620" width="1200" height="30" fill="#82aaff"/>
  <text x="20" y="640" font-family="monospace" font-size="11" fill="#1e1e2e">⎇ main</text>
  <text x="1000" y="640" font-family="monospace" font-size="11" fill="#1e1e2e">TypeScript React</text>
</svg>
